<mxfile host="app.diagrams.net" modified="2021-12-07T03:41:12.117Z" agent="5.0 (Windows NT 10.0; Win64; x64) AppleWebKit/537.36 (KHTML, like Gecko) Chrome/96.0.4664.45 Safari/537.36" etag="cxUQh_Cn9bZyVUd0-TZF" version="15.9.1" type="github">
  <diagram id="EXRjLzzVvO6rsN4g1rns" name="Page-1">
    <mxGraphModel dx="990" dy="619" grid="1" gridSize="10" guides="1" tooltips="1" connect="1" arrows="1" fold="1" page="1" pageScale="1" pageWidth="1100" pageHeight="850" math="0" shadow="0">
      <root>
        <mxCell id="0" />
        <mxCell id="1" parent="0" />
        <mxCell id="gdN_5qY7Y57v8ZB_KlkH-49" value="" style="rounded=0;whiteSpace=wrap;html=1;fillColor=#004C99;" vertex="1" parent="1">
          <mxGeometry x="80" y="120" width="10" height="160" as="geometry" />
        </mxCell>
        <mxCell id="gdN_5qY7Y57v8ZB_KlkH-50" value="" style="rounded=0;whiteSpace=wrap;html=1;fillColor=#004C99;" vertex="1" parent="1">
          <mxGeometry x="150" y="120" width="10" height="160" as="geometry" />
        </mxCell>
        <mxCell id="gdN_5qY7Y57v8ZB_KlkH-51" value="" style="rounded=0;whiteSpace=wrap;html=1;fillColor=#004C99;" vertex="1" parent="1">
          <mxGeometry x="220" y="120" width="10" height="160" as="geometry" />
        </mxCell>
        <mxCell id="gdN_5qY7Y57v8ZB_KlkH-52" value="256&lt;sup&gt;2&lt;/sup&gt;" style="text;html=1;strokeColor=none;fillColor=none;align=center;verticalAlign=middle;whiteSpace=wrap;rounded=0;" vertex="1" parent="1">
          <mxGeometry x="40" y="290" width="60" height="30" as="geometry" />
        </mxCell>
        <mxCell id="gdN_5qY7Y57v8ZB_KlkH-69" value="256&lt;sup&gt;2&lt;/sup&gt;" style="text;html=1;strokeColor=none;fillColor=none;align=center;verticalAlign=middle;whiteSpace=wrap;rounded=0;" vertex="1" parent="1">
          <mxGeometry x="125" y="290" width="60" height="30" as="geometry" />
        </mxCell>
        <mxCell id="gdN_5qY7Y57v8ZB_KlkH-70" value="256&lt;sup&gt;2&lt;/sup&gt;" style="text;html=1;strokeColor=none;fillColor=none;align=center;verticalAlign=middle;whiteSpace=wrap;rounded=0;" vertex="1" parent="1">
          <mxGeometry x="195" y="290" width="60" height="30" as="geometry" />
        </mxCell>
        <mxCell id="gdN_5qY7Y57v8ZB_KlkH-73" value="" style="html=1;rounded=0;strokeColor=#FF33FF;strokeWidth=3;fillColor=#00FF00;" edge="1" parent="1">
          <mxGeometry width="100" relative="1" as="geometry">
            <mxPoint x="90" y="210" as="sourcePoint" />
            <mxPoint x="110" y="210" as="targetPoint" />
          </mxGeometry>
        </mxCell>
        <mxCell id="gdN_5qY7Y57v8ZB_KlkH-74" value="" style="html=1;rounded=0;strokeColor=#006600;strokeWidth=3;fillColor=#00FF00;" edge="1" parent="1">
          <mxGeometry width="100" relative="1" as="geometry">
            <mxPoint x="110" y="210" as="sourcePoint" />
            <mxPoint x="130" y="210" as="targetPoint" />
          </mxGeometry>
        </mxCell>
        <mxCell id="gdN_5qY7Y57v8ZB_KlkH-75" value="" style="html=1;rounded=0;strokeColor=#663300;strokeWidth=3;fillColor=#00FF00;" edge="1" parent="1">
          <mxGeometry width="100" relative="1" as="geometry">
            <mxPoint x="130" y="210" as="sourcePoint" />
            <mxPoint x="150" y="210" as="targetPoint" />
          </mxGeometry>
        </mxCell>
        <mxCell id="gdN_5qY7Y57v8ZB_KlkH-82" value="" style="html=1;rounded=0;strokeColor=#FF33FF;strokeWidth=3;fillColor=#00FF00;" edge="1" parent="1">
          <mxGeometry width="100" relative="1" as="geometry">
            <mxPoint x="165" y="210" as="sourcePoint" />
            <mxPoint x="185" y="210" as="targetPoint" />
          </mxGeometry>
        </mxCell>
        <mxCell id="gdN_5qY7Y57v8ZB_KlkH-83" value="" style="html=1;rounded=0;strokeColor=#006600;strokeWidth=3;fillColor=#00FF00;" edge="1" parent="1">
          <mxGeometry width="100" relative="1" as="geometry">
            <mxPoint x="185" y="210" as="sourcePoint" />
            <mxPoint x="205" y="210" as="targetPoint" />
          </mxGeometry>
        </mxCell>
        <mxCell id="gdN_5qY7Y57v8ZB_KlkH-84" value="" style="html=1;rounded=0;strokeColor=#663300;strokeWidth=3;fillColor=#00FF00;" edge="1" parent="1">
          <mxGeometry width="100" relative="1" as="geometry">
            <mxPoint x="200" y="210" as="sourcePoint" />
            <mxPoint x="220" y="210" as="targetPoint" />
          </mxGeometry>
        </mxCell>
        <mxCell id="gdN_5qY7Y57v8ZB_KlkH-85" value="" style="html=1;rounded=0;strokeColor=#CCCC00;strokeWidth=3;fillColor=#00FF00;" edge="1" parent="1">
          <mxGeometry width="100" relative="1" as="geometry">
            <mxPoint x="230" y="330" as="sourcePoint" />
            <mxPoint x="230" y="350" as="targetPoint" />
          </mxGeometry>
        </mxCell>
        <mxCell id="gdN_5qY7Y57v8ZB_KlkH-86" value="" style="rounded=0;whiteSpace=wrap;html=1;fillColor=#004C99;" vertex="1" parent="1">
          <mxGeometry x="220" y="360" width="10" height="160" as="geometry" />
        </mxCell>
        <mxCell id="gdN_5qY7Y57v8ZB_KlkH-87" value="" style="rounded=0;whiteSpace=wrap;html=1;fillColor=#004C99;" vertex="1" parent="1">
          <mxGeometry x="290" y="360" width="10" height="160" as="geometry" />
        </mxCell>
        <mxCell id="gdN_5qY7Y57v8ZB_KlkH-88" value="" style="rounded=0;whiteSpace=wrap;html=1;fillColor=#004C99;" vertex="1" parent="1">
          <mxGeometry x="360" y="360" width="10" height="160" as="geometry" />
        </mxCell>
        <mxCell id="gdN_5qY7Y57v8ZB_KlkH-89" value="128&lt;sup&gt;2&lt;/sup&gt;" style="text;html=1;strokeColor=none;fillColor=none;align=center;verticalAlign=middle;whiteSpace=wrap;rounded=0;" vertex="1" parent="1">
          <mxGeometry x="180" y="530" width="60" height="30" as="geometry" />
        </mxCell>
        <mxCell id="gdN_5qY7Y57v8ZB_KlkH-90" value="128&lt;sup&gt;2&lt;/sup&gt;" style="text;html=1;strokeColor=none;fillColor=none;align=center;verticalAlign=middle;whiteSpace=wrap;rounded=0;" vertex="1" parent="1">
          <mxGeometry x="265" y="530" width="60" height="30" as="geometry" />
        </mxCell>
        <mxCell id="gdN_5qY7Y57v8ZB_KlkH-91" value="128&lt;sup&gt;2&lt;/sup&gt;" style="text;html=1;strokeColor=none;fillColor=none;align=center;verticalAlign=middle;whiteSpace=wrap;rounded=0;" vertex="1" parent="1">
          <mxGeometry x="335" y="530" width="60" height="30" as="geometry" />
        </mxCell>
        <mxCell id="gdN_5qY7Y57v8ZB_KlkH-92" value="" style="html=1;rounded=0;strokeColor=#FF33FF;strokeWidth=3;fillColor=#00FF00;" edge="1" parent="1">
          <mxGeometry width="100" relative="1" as="geometry">
            <mxPoint x="230" y="450" as="sourcePoint" />
            <mxPoint x="250" y="450" as="targetPoint" />
          </mxGeometry>
        </mxCell>
        <mxCell id="gdN_5qY7Y57v8ZB_KlkH-93" value="" style="html=1;rounded=0;strokeColor=#006600;strokeWidth=3;fillColor=#00FF00;" edge="1" parent="1">
          <mxGeometry width="100" relative="1" as="geometry">
            <mxPoint x="250" y="450" as="sourcePoint" />
            <mxPoint x="270" y="450" as="targetPoint" />
          </mxGeometry>
        </mxCell>
        <mxCell id="gdN_5qY7Y57v8ZB_KlkH-94" value="" style="html=1;rounded=0;strokeColor=#663300;strokeWidth=3;fillColor=#00FF00;" edge="1" parent="1">
          <mxGeometry width="100" relative="1" as="geometry">
            <mxPoint x="270" y="450" as="sourcePoint" />
            <mxPoint x="290" y="450" as="targetPoint" />
          </mxGeometry>
        </mxCell>
        <mxCell id="gdN_5qY7Y57v8ZB_KlkH-95" value="" style="html=1;rounded=0;strokeColor=#FF33FF;strokeWidth=3;fillColor=#00FF00;" edge="1" parent="1">
          <mxGeometry width="100" relative="1" as="geometry">
            <mxPoint x="305" y="450" as="sourcePoint" />
            <mxPoint x="325" y="450" as="targetPoint" />
          </mxGeometry>
        </mxCell>
        <mxCell id="gdN_5qY7Y57v8ZB_KlkH-96" value="" style="html=1;rounded=0;strokeColor=#006600;strokeWidth=3;fillColor=#00FF00;" edge="1" parent="1">
          <mxGeometry width="100" relative="1" as="geometry">
            <mxPoint x="325" y="450" as="sourcePoint" />
            <mxPoint x="345" y="450" as="targetPoint" />
          </mxGeometry>
        </mxCell>
        <mxCell id="gdN_5qY7Y57v8ZB_KlkH-97" value="" style="html=1;rounded=0;strokeColor=#663300;strokeWidth=3;fillColor=#00FF00;" edge="1" parent="1">
          <mxGeometry width="100" relative="1" as="geometry">
            <mxPoint x="340" y="450" as="sourcePoint" />
            <mxPoint x="360" y="450" as="targetPoint" />
          </mxGeometry>
        </mxCell>
        <mxCell id="gdN_5qY7Y57v8ZB_KlkH-98" value="" style="rounded=0;whiteSpace=wrap;html=1;fillColor=#004C99;" vertex="1" parent="1">
          <mxGeometry x="350" y="600" width="10" height="160" as="geometry" />
        </mxCell>
        <mxCell id="gdN_5qY7Y57v8ZB_KlkH-99" value="" style="rounded=0;whiteSpace=wrap;html=1;fillColor=#004C99;" vertex="1" parent="1">
          <mxGeometry x="420" y="600" width="10" height="160" as="geometry" />
        </mxCell>
        <mxCell id="gdN_5qY7Y57v8ZB_KlkH-101" value="64&lt;sup&gt;2&lt;/sup&gt;" style="text;html=1;strokeColor=none;fillColor=none;align=center;verticalAlign=middle;whiteSpace=wrap;rounded=0;" vertex="1" parent="1">
          <mxGeometry x="310" y="770" width="60" height="30" as="geometry" />
        </mxCell>
        <mxCell id="gdN_5qY7Y57v8ZB_KlkH-102" value="64&lt;sup&gt;2&lt;/sup&gt;" style="text;html=1;strokeColor=none;fillColor=none;align=center;verticalAlign=middle;whiteSpace=wrap;rounded=0;" vertex="1" parent="1">
          <mxGeometry x="395" y="770" width="60" height="30" as="geometry" />
        </mxCell>
        <mxCell id="gdN_5qY7Y57v8ZB_KlkH-103" value="64&lt;sup&gt;2&lt;/sup&gt;" style="text;html=1;strokeColor=none;fillColor=none;align=center;verticalAlign=middle;whiteSpace=wrap;rounded=0;" vertex="1" parent="1">
          <mxGeometry x="465" y="770" width="60" height="30" as="geometry" />
        </mxCell>
        <mxCell id="gdN_5qY7Y57v8ZB_KlkH-104" value="" style="html=1;rounded=0;strokeColor=#FF33FF;strokeWidth=3;fillColor=#00FF00;" edge="1" parent="1">
          <mxGeometry width="100" relative="1" as="geometry">
            <mxPoint x="360" y="690" as="sourcePoint" />
            <mxPoint x="380" y="690" as="targetPoint" />
          </mxGeometry>
        </mxCell>
        <mxCell id="gdN_5qY7Y57v8ZB_KlkH-105" value="" style="html=1;rounded=0;strokeColor=#006600;strokeWidth=3;fillColor=#00FF00;" edge="1" parent="1">
          <mxGeometry width="100" relative="1" as="geometry">
            <mxPoint x="380" y="690" as="sourcePoint" />
            <mxPoint x="400" y="690" as="targetPoint" />
          </mxGeometry>
        </mxCell>
        <mxCell id="gdN_5qY7Y57v8ZB_KlkH-106" value="" style="html=1;rounded=0;strokeColor=#663300;strokeWidth=3;fillColor=#00FF00;" edge="1" parent="1">
          <mxGeometry width="100" relative="1" as="geometry">
            <mxPoint x="400" y="690" as="sourcePoint" />
            <mxPoint x="420" y="690" as="targetPoint" />
          </mxGeometry>
        </mxCell>
        <mxCell id="gdN_5qY7Y57v8ZB_KlkH-110" value="" style="rounded=0;whiteSpace=wrap;html=1;fillColor=#004C99;" vertex="1" parent="1">
          <mxGeometry x="590" y="600" width="10" height="160" as="geometry" />
        </mxCell>
        <mxCell id="gdN_5qY7Y57v8ZB_KlkH-111" value="" style="rounded=0;whiteSpace=wrap;html=1;fillColor=#004C99;" vertex="1" parent="1">
          <mxGeometry x="660" y="600" width="10" height="160" as="geometry" />
        </mxCell>
        <mxCell id="gdN_5qY7Y57v8ZB_KlkH-112" value="" style="rounded=0;whiteSpace=wrap;html=1;fillColor=#004C99;" vertex="1" parent="1">
          <mxGeometry x="730" y="600" width="10" height="160" as="geometry" />
        </mxCell>
        <mxCell id="gdN_5qY7Y57v8ZB_KlkH-113" value="" style="html=1;rounded=0;strokeColor=#FF33FF;strokeWidth=3;fillColor=#00FF00;" edge="1" parent="1">
          <mxGeometry width="100" relative="1" as="geometry">
            <mxPoint x="600" y="690" as="sourcePoint" />
            <mxPoint x="620" y="690" as="targetPoint" />
          </mxGeometry>
        </mxCell>
        <mxCell id="gdN_5qY7Y57v8ZB_KlkH-114" value="" style="html=1;rounded=0;strokeColor=#006600;strokeWidth=3;fillColor=#00FF00;" edge="1" parent="1">
          <mxGeometry width="100" relative="1" as="geometry">
            <mxPoint x="620" y="690" as="sourcePoint" />
            <mxPoint x="640" y="690" as="targetPoint" />
          </mxGeometry>
        </mxCell>
        <mxCell id="gdN_5qY7Y57v8ZB_KlkH-115" value="" style="html=1;rounded=0;strokeColor=#663300;strokeWidth=3;fillColor=#00FF00;" edge="1" parent="1">
          <mxGeometry width="100" relative="1" as="geometry">
            <mxPoint x="640" y="690" as="sourcePoint" />
            <mxPoint x="660" y="690" as="targetPoint" />
          </mxGeometry>
        </mxCell>
        <mxCell id="gdN_5qY7Y57v8ZB_KlkH-116" value="" style="html=1;rounded=0;strokeColor=#FF33FF;strokeWidth=3;fillColor=#00FF00;" edge="1" parent="1">
          <mxGeometry width="100" relative="1" as="geometry">
            <mxPoint x="675" y="690" as="sourcePoint" />
            <mxPoint x="695" y="690" as="targetPoint" />
          </mxGeometry>
        </mxCell>
        <mxCell id="gdN_5qY7Y57v8ZB_KlkH-117" value="" style="html=1;rounded=0;strokeColor=#006600;strokeWidth=3;fillColor=#00FF00;" edge="1" parent="1">
          <mxGeometry width="100" relative="1" as="geometry">
            <mxPoint x="695" y="690" as="sourcePoint" />
            <mxPoint x="715" y="690" as="targetPoint" />
          </mxGeometry>
        </mxCell>
        <mxCell id="gdN_5qY7Y57v8ZB_KlkH-118" value="" style="html=1;rounded=0;strokeColor=#663300;strokeWidth=3;fillColor=#00FF00;" edge="1" parent="1">
          <mxGeometry width="100" relative="1" as="geometry">
            <mxPoint x="710" y="690" as="sourcePoint" />
            <mxPoint x="730" y="690" as="targetPoint" />
          </mxGeometry>
        </mxCell>
        <mxCell id="gdN_5qY7Y57v8ZB_KlkH-128" value="" style="rounded=0;whiteSpace=wrap;html=1;fillColor=#004C99;" vertex="1" parent="1">
          <mxGeometry x="730" y="360" width="10" height="160" as="geometry" />
        </mxCell>
        <mxCell id="gdN_5qY7Y57v8ZB_KlkH-129" value="" style="rounded=0;whiteSpace=wrap;html=1;fillColor=#004C99;" vertex="1" parent="1">
          <mxGeometry x="800" y="360" width="10" height="160" as="geometry" />
        </mxCell>
        <mxCell id="gdN_5qY7Y57v8ZB_KlkH-130" value="" style="rounded=0;whiteSpace=wrap;html=1;fillColor=#004C99;" vertex="1" parent="1">
          <mxGeometry x="870" y="360" width="10" height="160" as="geometry" />
        </mxCell>
        <mxCell id="gdN_5qY7Y57v8ZB_KlkH-131" value="256&lt;sup&gt;2&lt;/sup&gt;" style="text;html=1;strokeColor=none;fillColor=none;align=center;verticalAlign=middle;whiteSpace=wrap;rounded=0;" vertex="1" parent="1">
          <mxGeometry x="690" y="530" width="60" height="30" as="geometry" />
        </mxCell>
        <mxCell id="gdN_5qY7Y57v8ZB_KlkH-132" value="256&lt;sup&gt;2&lt;/sup&gt;" style="text;html=1;strokeColor=none;fillColor=none;align=center;verticalAlign=middle;whiteSpace=wrap;rounded=0;" vertex="1" parent="1">
          <mxGeometry x="775" y="530" width="60" height="30" as="geometry" />
        </mxCell>
        <mxCell id="gdN_5qY7Y57v8ZB_KlkH-133" value="256&lt;sup&gt;2&lt;/sup&gt;" style="text;html=1;strokeColor=none;fillColor=none;align=center;verticalAlign=middle;whiteSpace=wrap;rounded=0;" vertex="1" parent="1">
          <mxGeometry x="845" y="530" width="60" height="30" as="geometry" />
        </mxCell>
        <mxCell id="gdN_5qY7Y57v8ZB_KlkH-134" value="" style="html=1;rounded=0;strokeColor=#FF33FF;strokeWidth=3;fillColor=#00FF00;" edge="1" parent="1">
          <mxGeometry width="100" relative="1" as="geometry">
            <mxPoint x="740" y="450" as="sourcePoint" />
            <mxPoint x="760" y="450" as="targetPoint" />
          </mxGeometry>
        </mxCell>
        <mxCell id="gdN_5qY7Y57v8ZB_KlkH-135" value="" style="html=1;rounded=0;strokeColor=#006600;strokeWidth=3;fillColor=#00FF00;" edge="1" parent="1">
          <mxGeometry width="100" relative="1" as="geometry">
            <mxPoint x="760" y="450" as="sourcePoint" />
            <mxPoint x="780" y="450" as="targetPoint" />
          </mxGeometry>
        </mxCell>
        <mxCell id="gdN_5qY7Y57v8ZB_KlkH-136" value="" style="html=1;rounded=0;strokeColor=#663300;strokeWidth=3;fillColor=#00FF00;" edge="1" parent="1">
          <mxGeometry width="100" relative="1" as="geometry">
            <mxPoint x="780" y="450" as="sourcePoint" />
            <mxPoint x="800" y="450" as="targetPoint" />
          </mxGeometry>
        </mxCell>
        <mxCell id="gdN_5qY7Y57v8ZB_KlkH-137" value="" style="html=1;rounded=0;strokeColor=#FF33FF;strokeWidth=3;fillColor=#00FF00;" edge="1" parent="1">
          <mxGeometry width="100" relative="1" as="geometry">
            <mxPoint x="815" y="450" as="sourcePoint" />
            <mxPoint x="835" y="450" as="targetPoint" />
          </mxGeometry>
        </mxCell>
        <mxCell id="gdN_5qY7Y57v8ZB_KlkH-138" value="" style="html=1;rounded=0;strokeColor=#006600;strokeWidth=3;fillColor=#00FF00;" edge="1" parent="1">
          <mxGeometry width="100" relative="1" as="geometry">
            <mxPoint x="835" y="450" as="sourcePoint" />
            <mxPoint x="855" y="450" as="targetPoint" />
          </mxGeometry>
        </mxCell>
        <mxCell id="gdN_5qY7Y57v8ZB_KlkH-139" value="" style="html=1;rounded=0;strokeColor=#663300;strokeWidth=3;fillColor=#00FF00;" edge="1" parent="1">
          <mxGeometry width="100" relative="1" as="geometry">
            <mxPoint x="850" y="450" as="sourcePoint" />
            <mxPoint x="870" y="450" as="targetPoint" />
          </mxGeometry>
        </mxCell>
        <mxCell id="gdN_5qY7Y57v8ZB_KlkH-140" value="" style="rounded=0;whiteSpace=wrap;html=1;fillColor=#004C99;" vertex="1" parent="1">
          <mxGeometry x="870" y="120" width="10" height="160" as="geometry" />
        </mxCell>
        <mxCell id="gdN_5qY7Y57v8ZB_KlkH-141" value="" style="rounded=0;whiteSpace=wrap;html=1;fillColor=#004C99;" vertex="1" parent="1">
          <mxGeometry x="940" y="120" width="10" height="160" as="geometry" />
        </mxCell>
        <mxCell id="gdN_5qY7Y57v8ZB_KlkH-142" value="" style="rounded=0;whiteSpace=wrap;html=1;fillColor=#004C99;" vertex="1" parent="1">
          <mxGeometry x="1010" y="120" width="10" height="160" as="geometry" />
        </mxCell>
        <mxCell id="gdN_5qY7Y57v8ZB_KlkH-143" value="256&lt;sup&gt;2&lt;/sup&gt;" style="text;html=1;strokeColor=none;fillColor=none;align=center;verticalAlign=middle;whiteSpace=wrap;rounded=0;" vertex="1" parent="1">
          <mxGeometry x="830" y="290" width="60" height="30" as="geometry" />
        </mxCell>
        <mxCell id="gdN_5qY7Y57v8ZB_KlkH-144" value="256&lt;sup&gt;2&lt;/sup&gt;" style="text;html=1;strokeColor=none;fillColor=none;align=center;verticalAlign=middle;whiteSpace=wrap;rounded=0;" vertex="1" parent="1">
          <mxGeometry x="915" y="290" width="60" height="30" as="geometry" />
        </mxCell>
        <mxCell id="gdN_5qY7Y57v8ZB_KlkH-145" value="256&lt;sup&gt;2&lt;/sup&gt;" style="text;html=1;strokeColor=none;fillColor=none;align=center;verticalAlign=middle;whiteSpace=wrap;rounded=0;" vertex="1" parent="1">
          <mxGeometry x="985" y="290" width="60" height="30" as="geometry" />
        </mxCell>
        <mxCell id="gdN_5qY7Y57v8ZB_KlkH-146" value="" style="html=1;rounded=0;strokeColor=#FF33FF;strokeWidth=3;fillColor=#00FF00;" edge="1" parent="1">
          <mxGeometry width="100" relative="1" as="geometry">
            <mxPoint x="880" y="210" as="sourcePoint" />
            <mxPoint x="900" y="210" as="targetPoint" />
          </mxGeometry>
        </mxCell>
        <mxCell id="gdN_5qY7Y57v8ZB_KlkH-147" value="" style="html=1;rounded=0;strokeColor=#006600;strokeWidth=3;fillColor=#00FF00;" edge="1" parent="1">
          <mxGeometry width="100" relative="1" as="geometry">
            <mxPoint x="900" y="210" as="sourcePoint" />
            <mxPoint x="920" y="210" as="targetPoint" />
          </mxGeometry>
        </mxCell>
        <mxCell id="gdN_5qY7Y57v8ZB_KlkH-148" value="" style="html=1;rounded=0;strokeColor=#663300;strokeWidth=3;fillColor=#00FF00;" edge="1" parent="1">
          <mxGeometry width="100" relative="1" as="geometry">
            <mxPoint x="920" y="210" as="sourcePoint" />
            <mxPoint x="940" y="210" as="targetPoint" />
          </mxGeometry>
        </mxCell>
        <mxCell id="gdN_5qY7Y57v8ZB_KlkH-149" value="" style="html=1;rounded=0;strokeColor=#FF33FF;strokeWidth=3;fillColor=#00FF00;" edge="1" parent="1">
          <mxGeometry width="100" relative="1" as="geometry">
            <mxPoint x="955" y="210" as="sourcePoint" />
            <mxPoint x="975" y="210" as="targetPoint" />
          </mxGeometry>
        </mxCell>
        <mxCell id="gdN_5qY7Y57v8ZB_KlkH-150" value="" style="html=1;rounded=0;strokeColor=#006600;strokeWidth=3;fillColor=#00FF00;" edge="1" parent="1">
          <mxGeometry width="100" relative="1" as="geometry">
            <mxPoint x="975" y="210" as="sourcePoint" />
            <mxPoint x="995" y="210" as="targetPoint" />
          </mxGeometry>
        </mxCell>
        <mxCell id="gdN_5qY7Y57v8ZB_KlkH-151" value="" style="html=1;rounded=0;strokeColor=#663300;strokeWidth=3;fillColor=#00FF00;" edge="1" parent="1">
          <mxGeometry width="100" relative="1" as="geometry">
            <mxPoint x="990" y="210" as="sourcePoint" />
            <mxPoint x="1010" y="210" as="targetPoint" />
          </mxGeometry>
        </mxCell>
        <mxCell id="gdN_5qY7Y57v8ZB_KlkH-152" value="" style="html=1;rounded=0;strokeColor=#CCCC00;strokeWidth=3;fillColor=#00FF00;" edge="1" parent="1">
          <mxGeometry width="100" relative="1" as="geometry">
            <mxPoint x="359" y="560" as="sourcePoint" />
            <mxPoint x="359" y="580" as="targetPoint" />
          </mxGeometry>
        </mxCell>
        <mxCell id="gdN_5qY7Y57v8ZB_KlkH-153" value="" style="html=1;rounded=0;strokeColor=#CCCC00;strokeWidth=3;fillColor=#00FF00;entryX=0.75;entryY=1;entryDx=0;entryDy=0;" edge="1" parent="1" target="gdN_5qY7Y57v8ZB_KlkH-131">
          <mxGeometry width="100" relative="1" as="geometry">
            <mxPoint x="735" y="580" as="sourcePoint" />
            <mxPoint x="734.5" y="590" as="targetPoint" />
          </mxGeometry>
        </mxCell>
        <mxCell id="gdN_5qY7Y57v8ZB_KlkH-155" value="13" style="text;html=1;strokeColor=none;fillColor=none;align=center;verticalAlign=middle;whiteSpace=wrap;rounded=0;" vertex="1" parent="1">
          <mxGeometry x="55" y="80" width="60" height="30" as="geometry" />
        </mxCell>
        <mxCell id="gdN_5qY7Y57v8ZB_KlkH-156" value="32" style="text;html=1;strokeColor=none;fillColor=none;align=center;verticalAlign=middle;whiteSpace=wrap;rounded=0;" vertex="1" parent="1">
          <mxGeometry x="125" y="80" width="60" height="30" as="geometry" />
        </mxCell>
        <mxCell id="gdN_5qY7Y57v8ZB_KlkH-157" value="32" style="text;html=1;strokeColor=none;fillColor=none;align=center;verticalAlign=middle;whiteSpace=wrap;rounded=0;" vertex="1" parent="1">
          <mxGeometry x="195" y="80" width="60" height="30" as="geometry" />
        </mxCell>
        <mxCell id="gdN_5qY7Y57v8ZB_KlkH-159" value="32" style="text;html=1;strokeColor=none;fillColor=none;align=center;verticalAlign=middle;whiteSpace=wrap;rounded=0;" vertex="1" parent="1">
          <mxGeometry x="220" y="320" width="60" height="30" as="geometry" />
        </mxCell>
        <mxCell id="gdN_5qY7Y57v8ZB_KlkH-160" value="64" style="text;html=1;strokeColor=none;fillColor=none;align=center;verticalAlign=middle;whiteSpace=wrap;rounded=0;" vertex="1" parent="1">
          <mxGeometry x="265" y="320" width="60" height="30" as="geometry" />
        </mxCell>
        <mxCell id="gdN_5qY7Y57v8ZB_KlkH-161" value="64" style="text;html=1;strokeColor=none;fillColor=none;align=center;verticalAlign=middle;whiteSpace=wrap;rounded=0;" vertex="1" parent="1">
          <mxGeometry x="335" y="320" width="60" height="30" as="geometry" />
        </mxCell>
        <mxCell id="gdN_5qY7Y57v8ZB_KlkH-164" value="64" style="text;html=1;strokeColor=none;fillColor=none;align=center;verticalAlign=middle;whiteSpace=wrap;rounded=0;" vertex="1" parent="1">
          <mxGeometry x="335" y="570" width="60" height="30" as="geometry" />
        </mxCell>
        <mxCell id="gdN_5qY7Y57v8ZB_KlkH-165" value="128" style="text;html=1;strokeColor=none;fillColor=none;align=center;verticalAlign=middle;whiteSpace=wrap;rounded=0;" vertex="1" parent="1">
          <mxGeometry x="405" y="570" width="60" height="30" as="geometry" />
        </mxCell>
        <mxCell id="gdN_5qY7Y57v8ZB_KlkH-167" value="" style="html=1;rounded=0;strokeColor=#FF0000;strokeWidth=3;fillColor=#00FF00;" edge="1" parent="1">
          <mxGeometry width="100" relative="1" as="geometry">
            <mxPoint x="795" y="450" as="sourcePoint" />
            <mxPoint x="815" y="450" as="targetPoint" />
          </mxGeometry>
        </mxCell>
        <mxCell id="gdN_5qY7Y57v8ZB_KlkH-170" value="" style="html=1;rounded=0;strokeColor=#FF0000;strokeWidth=3;fillColor=#00FF00;entryX=0.65;entryY=1.067;entryDx=0;entryDy=0;entryPerimeter=0;" edge="1" parent="1">
          <mxGeometry width="100" relative="1" as="geometry">
            <mxPoint x="735.5" y="577.99" as="sourcePoint" />
            <mxPoint x="734.5" y="560" as="targetPoint" />
          </mxGeometry>
        </mxCell>
        <mxCell id="gdN_5qY7Y57v8ZB_KlkH-171" value="" style="html=1;rounded=0;strokeColor=#FF0000;strokeWidth=3;fillColor=#00FF00;entryX=0.65;entryY=1.067;entryDx=0;entryDy=0;entryPerimeter=0;" edge="1" parent="1">
          <mxGeometry width="100" relative="1" as="geometry">
            <mxPoint x="875.5" y="344" as="sourcePoint" />
            <mxPoint x="874.5" y="326.01" as="targetPoint" />
          </mxGeometry>
        </mxCell>
        <mxCell id="gdN_5qY7Y57v8ZB_KlkH-172" value="" style="html=1;rounded=0;strokeColor=#FF0000;strokeWidth=3;fillColor=#00FF00;" edge="1" parent="1">
          <mxGeometry width="100" relative="1" as="geometry">
            <mxPoint x="940" y="210" as="sourcePoint" />
            <mxPoint x="960" y="210" as="targetPoint" />
          </mxGeometry>
        </mxCell>
        <mxCell id="gdN_5qY7Y57v8ZB_KlkH-173" value="" style="html=1;rounded=0;strokeColor=#FF0000;strokeWidth=3;fillColor=#00FF00;" edge="1" parent="1">
          <mxGeometry width="100" relative="1" as="geometry">
            <mxPoint x="660" y="690" as="sourcePoint" />
            <mxPoint x="680" y="690" as="targetPoint" />
          </mxGeometry>
        </mxCell>
        <mxCell id="gdN_5qY7Y57v8ZB_KlkH-183" value="128" style="text;html=1;strokeColor=none;fillColor=none;align=center;verticalAlign=middle;whiteSpace=wrap;rounded=0;" vertex="1" parent="1">
          <mxGeometry x="565" y="570" width="60" height="30" as="geometry" />
        </mxCell>
        <mxCell id="gdN_5qY7Y57v8ZB_KlkH-184" value="64" style="text;html=1;strokeColor=none;fillColor=none;align=center;verticalAlign=middle;whiteSpace=wrap;rounded=0;" vertex="1" parent="1">
          <mxGeometry x="635" y="570" width="60" height="30" as="geometry" />
        </mxCell>
        <mxCell id="gdN_5qY7Y57v8ZB_KlkH-185" value="64" style="text;html=1;strokeColor=none;fillColor=none;align=center;verticalAlign=middle;whiteSpace=wrap;rounded=0;" vertex="1" parent="1">
          <mxGeometry x="705" y="570" width="60" height="30" as="geometry" />
        </mxCell>
        <mxCell id="gdN_5qY7Y57v8ZB_KlkH-187" value="" style="html=1;rounded=0;strokeColor=#FF33FF;strokeWidth=3;fillColor=#00FF00;" edge="1" parent="1">
          <mxGeometry width="100" relative="1" as="geometry">
            <mxPoint x="465" y="690" as="sourcePoint" />
            <mxPoint x="485" y="690" as="targetPoint" />
          </mxGeometry>
        </mxCell>
        <mxCell id="gdN_5qY7Y57v8ZB_KlkH-188" value="" style="html=1;rounded=0;strokeColor=#006600;strokeWidth=3;fillColor=#00FF00;" edge="1" parent="1">
          <mxGeometry width="100" relative="1" as="geometry">
            <mxPoint x="505" y="690" as="sourcePoint" />
            <mxPoint x="525" y="690" as="targetPoint" />
          </mxGeometry>
        </mxCell>
        <mxCell id="gdN_5qY7Y57v8ZB_KlkH-189" value="" style="html=1;rounded=0;strokeColor=#663300;strokeWidth=3;fillColor=#00FF00;" edge="1" parent="1">
          <mxGeometry width="100" relative="1" as="geometry">
            <mxPoint x="540" y="690" as="sourcePoint" />
            <mxPoint x="560" y="690" as="targetPoint" />
          </mxGeometry>
        </mxCell>
      </root>
    </mxGraphModel>
  </diagram>
</mxfile>
